<?xml version="1.0" encoding="iso-8859-1"?>
<!-- Generator: Adobe Illustrator 18.1.1, SVG Export Plug-In . SVG Version: 6.00 Build 0)  -->
<svg version="1.1" id="Capa_1" xmlns="http://www.w3.org/2000/svg" xmlns:xlink="http://www.w3.org/1999/xlink" x="0px" y="0px"
	 viewBox="0 0 80.524 80.524" style="enable-background:new 0 0 80.524 80.524;" xml:space="preserve">
<g>
	<g>
		<path style="fill:#010002;" d="M49.209,4.348V2.684C49.209,1.199,45.204,0,40.262,0s-8.947,1.199-8.947,2.684v1.664
			c-5.612,0.909-9.842,2.738-9.842,5.494v64.419c0,4.109,9.452,6.263,18.789,6.263s18.789-2.154,18.789-6.263V9.842
			C59.051,7.083,54.821,5.257,49.209,4.348z M31.315,6.113v3.729c0,1.485,4.005,2.684,8.947,2.684s8.947-1.199,8.947-2.684V6.113
			c5.093,0.905,8.052,2.473,8.052,3.729c0,1.868-6.467,4.474-17,4.474s-17-2.605-17-4.474C23.263,8.586,26.222,7.018,31.315,6.113z
			 M40.262,78.731c-10.533,0-17-2.605-17-4.474V12.662c3.174,2.265,10.11,3.439,17,3.439s13.825-1.174,17-3.439v61.596
			C57.262,76.126,50.795,78.731,40.262,78.731z"/>
		<path style="fill:#010002;" d="M25.428,31.311v42.946c1.628,1.102,6.771,2.684,14.834,2.684c8.06,0,13.199-1.582,14.834-2.684
			V31.311c-1.628-1.099-6.775-2.684-14.834-2.684C32.199,28.627,27.063,30.213,25.428,31.311z"/>
	</g>
</g>
<g>
</g>
<g>
</g>
<g>
</g>
<g>
</g>
<g>
</g>
<g>
</g>
<g>
</g>
<g>
</g>
<g>
</g>
<g>
</g>
<g>
</g>
<g>
</g>
<g>
</g>
<g>
</g>
<g>
</g>
</svg>
